<?xml version="1.0"?>
<svg xmlns="http://www.w3.org/2000/svg" xmlns:xlink="http://www.w3.org/1999/xlink" version="1.1" viewBox="0 0 192 192" width="100px" height="100px"><g transform="translate(4.8,4.8) scale(0.95,0.95)"><g fill="none" fill-rule="nonzero" stroke="none" stroke-width="none" stroke-linecap="butt" stroke-linejoin="none" stroke-miterlimit="10" stroke-dasharray="" stroke-dashoffset="0" font-family="none" font-weight="none" font-size="none" text-anchor="none" style="mix-blend-mode: normal"><g fill="#e74c3c" stroke="#2ecc71" stroke-width="10" stroke-linejoin="round"><path d="M96.975,7.8825l80.895,27.48c1.72416,0.58368 2.80272,2.30154 2.58,4.1025l-12.6975,104.145c-0.14592,1.22496 -0.88212,2.3073 -1.965,2.9025l-68.115,37.335c-0.57216,0.31488 -1.2114,0.4725 -1.845,0.4725c-0.62976,0 -1.26168,-0.15396 -1.83,-0.465l-67.77,-36.8325c-1.0944,-0.59136 -1.82274,-1.67736 -1.9725,-2.91l-12.705,-104.1525c-0.22272,-1.79328 0.84504,-3.49614 2.55,-4.0875l80.3775,-27.975c0.40512,-0.13824 0.83058,-0.20808 1.2525,-0.21c0.42192,-0.00192 0.8418,0.0606 1.245,0.195zM46.08,134.4h17.04l10.68,-23.01h44.4l10.68,23.01h17.04l-49.92,-107.52zM111.0525,96h-30.105l15.0525,-32.64z"/></g><path d="M0,192v-192h192v192z" fill="none" stroke="none" stroke-width="1" stroke-linejoin="miter"/><g fill="#e74c3c" stroke="none" stroke-width="1" stroke-linejoin="miter"><path d="M95.73,7.6875c-0.42192,0.00192 -0.84738,0.07176 -1.2525,0.21l-80.3775,27.975c-1.70496,0.59136 -2.77272,2.29422 -2.55,4.0875l12.705,104.1525c0.14976,1.23264 0.8781,2.31864 1.9725,2.91l67.77,36.8325c0.56832,0.31104 1.20024,0.465 1.83,0.465c0.6336,0 1.27284,-0.15762 1.845,-0.4725l68.115,-37.335c1.08288,-0.5952 1.81908,-1.67754 1.965,-2.9025l12.6975,-104.145c0.22272,-1.80096 -0.85584,-3.51882 -2.58,-4.1025l-80.895,-27.48c-0.4032,-0.1344 -0.82308,-0.19692 -1.245,-0.195zM96,26.88l49.92,107.52h-17.04l-10.68,-23.01h-44.4l-10.68,23.01h-17.04zM96,63.36l-15.0525,32.64h30.105z"/></g><path d="" fill="none" stroke="none" stroke-width="1" stroke-linejoin="miter"/></g></g></svg>
