<?xml version="1.0"?>
<svg xmlns="http://www.w3.org/2000/svg" height="512px" viewBox="-21 -83 682.66669 682" width="512px" class=""><g><path d="m453.898438 67.375c0-34.53125-28.097657-62.628906-62.632813-62.628906h-328.640625c-34.53125 0-62.625 28.097656-62.625 62.628906 0 22.46875 11.898438 42.199219 29.71875 53.253906-17.820312 11.050782-29.71875 30.789063-29.71875 53.253906 0 22.464844 11.898438 42.203126 29.71875 53.25-17.820312 11.054688-29.71875 30.789063-29.71875 53.257813 0 34.53125 28.09375 62.628906 62.625 62.628906h215.714844c5.175781 0 9.375-4.199219 9.375-9.375s-4.199219-9.375-9.375-9.375h-121.496094v-87.761719h234.421875c24.195313 0 43.882813 19.6875 43.882813 43.882813s-19.6875 43.878906-43.882813 43.878906h-72.101563c-5.175781 0-9.375 4.199219-9.375 9.375 0 5.179688 4.199219 9.375 9.375 9.375h72.101563c34.535156 0 62.632813-28.097656 62.632813-62.628906 0-22.46875-11.902344-42.203125-29.71875-53.257813 17.816406-11.046874 29.71875-30.785156 29.71875-53.25 0-22.464843-11.902344-42.203124-29.71875-53.253906 17.816406-11.054687 29.71875-30.785156 29.71875-53.253906zm-365.164063 62.628906h49.359375v87.753906h-49.359375zm49.359375-18.75h-49.359375v-87.757812h49.359375zm-119.34375-43.878906c0-24.195312 19.683594-43.878906 43.875-43.878906h7.367188v87.757812h-7.367188c-24.191406 0-43.875-19.6875-43.875-43.878906zm0 106.507812c0-24.195312 19.683594-43.878906 43.875-43.878906h7.367188v87.753906h-7.367188c-24.191406 0-43.875-19.679687-43.875-43.875zm0 106.507813c0-24.195313 19.683594-43.882813 43.875-43.882813h7.367188v87.761719h-7.367188c-24.191406 0-43.875-19.683593-43.875-43.878906zm69.984375 43.878906v-87.761719h49.359375v87.761719zm302.53125-213.015625h-137.101563c-5.175781 0-9.375 4.195313-9.375 9.375 0 5.175782 4.199219 9.375 9.375 9.375h137.105469c24.191407 0 43.878907 19.683594 43.878907 43.878906 0 24.195313-19.683594 43.875-43.878907 43.875h-234.425781v-87.753906h56.496094c5.175781 0 9.375-4.199218 9.375-9.375 0-5.179687-4.199219-9.375-9.375-9.375h-56.496094v-87.757812h234.421875c24.195313 0 43.882813 19.683594 43.882813 43.878906 0 24.199219-19.6875 43.878906-43.882813 43.878906zm0 0" data-original="#000000" class="active-path" data-old_color="#000000" fill="#FDCB6E"/><path d="m354.421875 40.972656c-14.554687 0-26.398437 11.84375-26.398437 26.402344s11.84375 26.40625 26.398437 26.40625c14.5625 0 26.40625-11.847656 26.40625-26.40625s-11.84375-26.402344-26.40625-26.402344zm0 34.058594c-4.21875 0-7.648437-3.4375-7.648437-7.65625s3.429687-7.652344 7.648437-7.652344c4.226563 0 7.65625 3.433594 7.65625 7.652344s-3.429687 7.65625-7.65625 7.65625zm0 0" data-original="#000000" class="active-path" data-old_color="#000000" fill="#FDCB6E"/><path d="m263.402344 59.273438h-.128906c-.015626 0-.03125 0-.046876 0-5.15625 0-9.351562 4.167968-9.375 9.332031-.023437 5.179687 4.15625 9.394531 9.332032 9.417969h.175781c5.15625 0 9.351563-4.164063 9.375-9.332032.023437-5.175781-4.15625-9.394531-9.332031-9.417968zm0 0" data-original="#000000" class="active-path" data-old_color="#000000" fill="#FDCB6E"/><path d="m231.867188 59.273438h-.128907c-5.136719.019531-9.394531 4.15625-9.417969 9.332031-.023437 5.179687 4.15625 9.394531 9.328126 9.417969h.179687c5.15625 0 9.34375-4.164063 9.375-9.332032.015625-5.175781-4.15625-9.394531-9.335937-9.417968zm0 0" data-original="#000000" class="active-path" data-old_color="#000000" fill="#FDCB6E"/><path d="m200.332031 59.273438h-.132812c-.011719 0-.027344 0-.042969 0-5.15625 0-9.34375 4.167968-9.375 9.332031-.019531 5.179687 4.15625 9.394531 9.335938 9.417969h.171874c5.15625 0 9.351563-4.164063 9.375-9.332032.023438-5.175781-4.15625-9.394531-9.332031-9.417968zm0 0" data-original="#000000" class="active-path" data-old_color="#000000" fill="#FDCB6E"/><path d="m354.421875 200.289062c14.5625 0 26.40625-11.847656 26.40625-26.40625 0-14.5625-11.84375-26.40625-26.40625-26.40625-14.554687 0-26.398437 11.84375-26.398437 26.40625 0 14.558594 11.84375 26.40625 26.398437 26.40625zm0-34.058593c4.226563 0 7.65625 3.433593 7.65625 7.652343s-3.429687 7.65625-7.65625 7.65625c-4.21875 0-7.648437-3.4375-7.648437-7.65625s3.429687-7.652343 7.648437-7.652343zm0 0" data-original="#000000" class="active-path" data-old_color="#000000" fill="#FDCB6E"/><path d="m263.183594 184.53125h.175781c5.15625 0 9.34375-4.167969 9.371094-9.332031.023437-5.179688-4.152344-9.394531-9.332031-9.417969h-.125c-.015626 0-.03125 0-.046876 0-5.15625 0-9.351562 4.171875-9.375 9.332031-.023437 5.175781 4.152344 9.394531 9.332032 9.417969zm0 0" data-original="#000000" class="active-path" data-old_color="#000000" fill="#FDCB6E"/><path d="m231.867188 165.78125h-.128907c-.015625 0-.027343 0-.042969 0-5.15625 0-9.351562 4.171875-9.375 9.332031-.023437 5.175781 4.15625 9.394531 9.328126 9.417969h.179687c5.15625 0 9.34375-4.167969 9.375-9.332031.015625-5.175781-4.15625-9.394531-9.335937-9.417969zm0 0" data-original="#000000" class="active-path" data-old_color="#000000" fill="#FDCB6E"/><path d="m200.332031 165.78125h-.132812c-.011719 0-.027344 0-.042969 0-5.15625 0-9.34375 4.171875-9.375 9.332031-.019531 5.175781 4.15625 9.394531 9.335938 9.417969h.171874c5.15625 0 9.351563-4.167969 9.375-9.332031.023438-5.175781-4.15625-9.394531-9.332031-9.417969zm0 0" data-original="#000000" class="active-path" data-old_color="#000000" fill="#FDCB6E"/><path d="m380.828125 280.390625c0-14.558594-11.84375-26.40625-26.40625-26.40625-14.554687 0-26.398437 11.847656-26.398437 26.40625 0 14.554687 11.84375 26.402344 26.398437 26.402344 14.5625 0 26.40625-11.847657 26.40625-26.402344zm-34.054687 0c0-4.222656 3.429687-7.65625 7.648437-7.65625 4.226563 0 7.65625 3.433594 7.65625 7.65625 0 4.21875-3.429687 7.652344-7.65625 7.652344-4.21875 0-7.648437-3.433594-7.648437-7.652344zm0 0" data-original="#000000" class="active-path" data-old_color="#000000" fill="#FDCB6E"/><path d="m263.226562 272.289062c-5.179687 0-9.375 4.195313-9.375 9.375 0 5.175782 4.195313 9.375 9.375 9.375h.128907c5.179687 0 9.375-4.199218 9.375-9.375 0-5.179687-4.195313-9.375-9.375-9.375zm0 0" data-original="#000000" class="active-path" data-old_color="#000000" fill="#FDCB6E"/><path d="m231.695312 272.289062c-5.179687 0-9.375 4.195313-9.375 9.375 0 5.175782 4.195313 9.375 9.375 9.375h.125c5.179688 0 9.375-4.199218 9.375-9.375 0-5.179687-4.195312-9.375-9.375-9.375zm0 0" data-original="#000000" class="active-path" data-old_color="#000000" fill="#FDCB6E"/><path d="m200.15625 272.289062c-5.175781 0-9.375 4.195313-9.375 9.375 0 5.175782 4.199219 9.375 9.375 9.375h.132812c5.175782 0 9.375-4.199218 9.375-9.375 0-5.179687-4.199218-9.375-9.375-9.375zm0 0" data-original="#000000" class="active-path" data-old_color="#000000" fill="#FDCB6E"/><path d="m396.390625 457.597656h-133.6875c-3.371094-12.859375-13.519531-23.007812-26.378906-26.382812 0-.023438.003906-.050782.003906-.082032v-57.582031c0-5.175781-4.199219-9.375-9.375-9.375-5.179687 0-9.375 4.199219-9.375 9.375v57.664063c-12.859375 3.375-23.007813 13.523437-26.382813 26.382812h-133.6875c-5.171874 0-9.375 4.199219-9.375 9.375 0 5.175782 4.203126 9.375 9.375 9.375h133.6875c4.160157 15.855469 18.613282 27.589844 35.753907 27.589844 17.144531 0 31.597656-11.734375 35.753906-27.589844h133.6875c5.175781 0 9.375-4.199218 9.375-9.375 0-5.175781-4.195313-9.375-9.375-9.375zm-169.4375 27.589844c-10.042969 0-18.210937-8.171875-18.210937-18.214844 0-10.042968 8.167968-18.210937 18.210937-18.210937 10.039063 0 18.207031 8.167969 18.207031 18.210937 0 10.039063-8.167968 18.214844-18.207031 18.214844zm0 0" data-original="#000000" class="active-path" data-old_color="#000000" fill="#FDCB6E"/><path d="m597.339844 379.839844v-250.996094c26.105468-13.859375 42.660156-41.054688 42.660156-70.929688 0-20.101562-7.460938-39.335937-21.011719-54.160156-6.53125-7.148437-16.613281-9.492187-25.671875-5.976562-9.15625 3.554687-15.070312 12.175781-15.070312 21.964844v26.308593c0 2.621094-2.132813 4.75-4.761719 4.75h-27.566406c-2.628907 0-4.753907-2.132812-4.753907-4.75v-26.308593c0-9.789063-5.914062-18.410157-15.070312-21.957032-9.0625-3.523437-19.140625-1.179687-25.679688 5.96875-13.542968 14.824219-21.007812 34.058594-21.007812 54.160156 0 29.878907 16.550781 57.078126 42.660156 70.929688v43.832031c0 5.179688 4.199219 9.375 9.375 9.375 5.175782 0 9.375-4.195312 9.375-9.375v-49.710937c0-3.734375-2.214844-7.109375-5.636718-8.597656-22.488282-9.785157-37.023438-31.945313-37.023438-56.453126 0-15.402343 5.714844-30.148437 16.101562-41.507812 1.820313-1.996094 3.945313-1.578125 5.046876-1.148438.933593.363282 3.101562 1.523438 3.101562 4.484376v26.304687c0 12.960937 10.546875 23.503906 23.507812 23.503906h27.570313c12.964844 0 23.507813-10.546875 23.507813-23.503906v-26.304687c0-2.960938 2.171874-4.121094 3.105468-4.484376 1.097656-.429687 3.226563-.847656 5.050782 1.148438 10.382812 11.359375 16.097656 26.105469 16.097656 41.507812 0 24.507813-14.53125 46.667969-37.027344 56.453126-3.417969 1.488281-5.632812 4.863281-5.632812 8.59375v262.761718c0 3.730469 2.214843 7.105469 5.632812 8.59375 22.496094 9.785156 37.027344 31.945313 37.027344 56.449219 0 15.410156-5.71875 30.152344-16.097656 41.511719-1.824219 1.996094-3.953126 1.574218-5.054688 1.144531-.933594-.359375-3.101562-1.523437-3.101562-4.480469v-26.304687c0-12.964844-10.546876-23.503907-23.507813-23.503907h-27.570313c-12.960937 0-23.507812 10.546876-23.507812 23.503907v26.304687c0 2.957032-2.167969 4.121094-3.101562 4.480469-1.105469.429687-3.226563.851563-5.046876-1.144531-10.386718-11.359375-16.101562-26.101563-16.101562-41.511719 0-24.503906 14.53125-46.660156 37.023438-56.445313 3.421874-1.488281 5.636718-4.867187 5.636718-8.597656v-172.222656c0-5.175781-4.199218-9.375-9.375-9.375-5.175781 0-9.375 4.199219-9.375 9.375v166.339844c-26.109375 13.851562-42.660156 41.050781-42.660156 70.925781 0 20.105469 7.464844 39.335937 21.007812 54.160156 4.515626 4.941407 10.734376 7.589844 17.128907 7.589844 2.855469 0 5.753906-.527344 8.550781-1.613281 9.148438-3.554688 15.070312-12.175782 15.070312-21.964844v-26.304688c0-2.621093 2.132813-4.75 4.753907-4.75h27.574219c2.621093 0 4.753906 2.132813 4.753906 4.75v26.304688c0 9.789062 5.914062 18.410156 15.066406 21.960938 9.066406 3.519531 19.144531 1.171874 25.675781-5.972657 13.550781-14.828125 21.011719-34.0625 21.011719-54.160156 0-29.875-16.554688-57.074219-42.660156-70.925781zm0 0" data-original="#000000" class="active-path" data-old_color="#000000" fill="#FDCB6E"/></g> </svg>
