<?xml version="1.0"?>
<svg xmlns="http://www.w3.org/2000/svg" height="512px" viewBox="-21 -38 682.66669 682" width="512px" class=""><g><path d="m619.109375 416.277344h-159.640625c-11.519531 0-20.890625 9.367187-20.890625 20.886718v75h-17.871094v-75c0-11.519531-9.371093-20.886718-20.882812-20.886718h-159.648438c-11.511719 0-20.882812 9.367187-20.882812 20.886718v75h-17.871094v-75c0-11.519531-9.371094-20.886718-20.890625-20.886718h-159.640625c-11.519531 0-20.890625 9.367187-20.890625 20.886718v146.652344c0 11.515625 9.371094 20.886719 20.890625 20.886719h159.640625c11.519531 0 20.890625-9.371094 20.890625-20.886719v-52.902344h17.871094v52.902344c0 11.515625 9.371093 20.886719 20.882812 20.886719h95.664063c5.175781 0 9.375-4.199219 9.375-9.375 0-5.179687-4.199219-9.375-9.375-9.375h-95.664063c-1.175781 0-2.132812-.960937-2.132812-2.136719v-114.042968h163.917969v114.042968c0 1.175782-.960938 2.136719-2.136719 2.136719h-23.164063c-5.175781 0-9.375 4.195313-9.375 9.375 0 5.175781 4.199219 9.375 9.375 9.375h23.164063c11.511719 0 20.882812-9.371094 20.882812-20.886719v-52.902344h17.871094v52.902344c0 11.515625 9.371094 20.886719 20.890625 20.886719h159.640625c11.519531 0 20.890625-9.371094 20.890625-20.886719v-146.652344c0-11.519531-9.371094-20.886718-20.890625-20.886718zm-436.4375 20.886718v13.859376h-93.570313v-15.996094h91.429688c1.183594 0 2.140625.957031 2.140625 2.136718zm-161.78125-2.136718h49.460937v15.996094h-51.601562v-13.859376c0-1.179687.957031-2.136718 2.140625-2.136718zm159.640625 150.925781h-159.640625c-1.183594 0-2.140625-.957031-2.140625-2.132813v-114.046874h163.921875v114.046874c0 1.175782-.957031 2.132813-2.140625 2.132813zm57.511719-148.789063c0-1.175781.957031-2.136718 2.132812-2.136718h49.46875v16h-51.601562zm70.351562 13.859376v-15.996094h91.429688c1.175781 0 2.136719.957031 2.136719 2.136718v13.859376zm312.855469-13.859376v13.859376h-93.570312v-15.996094h91.429687c1.183594 0 2.140625.957031 2.140625 2.136718zm-161.78125-2.136718h49.460938v15.996094h-51.601563v-13.859376c0-1.179687.957031-2.136718 2.140625-2.136718zm159.640625 150.925781h-159.640625c-1.183594 0-2.140625-.957031-2.140625-2.132813v-114.046874h163.921875v114.046874c0 1.175782-.957031 2.132813-2.140625 2.132813zm0 0" data-original="#000000" class="active-path" data-old_color="#000000" fill="#FDCB6E"/><path d="m508.082031 491.550781h-.132812c-5.179688 0-9.375 4.199219-9.375 9.375 0 5.179688 4.195312 9.375 9.375 9.375h.132812c5.175781 0 9.375-4.195312 9.375-9.375 0-5.175781-4.199219-9.375-9.375-9.375zm0 0" data-original="#000000" class="active-path" data-old_color="#000000" fill="#FDCB6E"/><path d="m570.628906 491.550781h-32.027344c-5.171874 0-9.375 4.199219-9.375 9.375 0 5.179688 4.203126 9.375 9.375 9.375h32.027344c5.183594 0 9.375-4.195312 9.375-9.375 0-5.175781-4.191406-9.375-9.375-9.375zm0 0" data-original="#000000" class="active-path" data-old_color="#000000" fill="#FDCB6E"/><path d="m508.082031 519.050781h-.132812c-5.179688 0-9.375 4.199219-9.375 9.375 0 5.179688 4.195312 9.375 9.375 9.375h.132812c5.175781 0 9.375-4.195312 9.375-9.375 0-5.175781-4.199219-9.375-9.375-9.375zm0 0" data-original="#000000" class="active-path" data-old_color="#000000" fill="#FDCB6E"/><path d="m570.628906 519.050781h-32.027344c-5.171874 0-9.375 4.199219-9.375 9.375 0 5.179688 4.203126 9.375 9.375 9.375h32.027344c5.183594 0 9.375-4.195312 9.375-9.375 0-5.175781-4.191406-9.375-9.375-9.375zm0 0" data-original="#000000" class="active-path" data-old_color="#000000" fill="#FDCB6E"/><path d="m508.082031 546.550781h-.132812c-5.179688 0-9.375 4.199219-9.375 9.375 0 5.179688 4.195312 9.375 9.375 9.375h.132812c5.175781 0 9.375-4.195312 9.375-9.375 0-5.175781-4.199219-9.375-9.375-9.375zm0 0" data-original="#000000" class="active-path" data-old_color="#000000" fill="#FDCB6E"/><path d="m570.628906 546.550781h-32.027344c-5.171874 0-9.375 4.199219-9.375 9.375 0 5.179688 4.203126 9.375 9.375 9.375h32.027344c5.183594 0 9.375-4.195312 9.375-9.375 0-5.175781-4.191406-9.375-9.375-9.375zm0 0" data-original="#000000" class="active-path" data-old_color="#000000" fill="#FDCB6E"/><path d="m69.496094 491.550781h-.125c-5.183594 0-9.375 4.199219-9.375 9.375 0 5.179688 4.191406 9.375 9.375 9.375h.125c5.183594 0 9.375-4.195312 9.375-9.375 0-5.175781-4.191406-9.375-9.375-9.375zm0 0" data-original="#000000" class="active-path" data-old_color="#000000" fill="#FDCB6E"/><path d="m132.050781 491.550781h-32.027343c-5.175782 0-9.375 4.199219-9.375 9.375 0 5.179688 4.199218 9.375 9.375 9.375h32.027343c5.179688 0 9.375-4.195312 9.375-9.375 0-5.175781-4.199219-9.375-9.375-9.375zm0 0" data-original="#000000" class="active-path" data-old_color="#000000" fill="#FDCB6E"/><path d="m69.496094 519.050781h-.125c-5.183594 0-9.375 4.199219-9.375 9.375 0 5.179688 4.191406 9.375 9.375 9.375h.125c5.183594 0 9.375-4.195312 9.375-9.375 0-5.175781-4.191406-9.375-9.375-9.375zm0 0" data-original="#000000" class="active-path" data-old_color="#000000" fill="#FDCB6E"/><path d="m132.050781 519.050781h-32.027343c-5.175782 0-9.375 4.199219-9.375 9.375 0 5.179688 4.199218 9.375 9.375 9.375h32.027343c5.179688 0 9.375-4.195312 9.375-9.375 0-5.175781-4.199219-9.375-9.375-9.375zm0 0" data-original="#000000" class="active-path" data-old_color="#000000" fill="#FDCB6E"/><path d="m69.496094 546.550781h-.125c-5.183594 0-9.375 4.199219-9.375 9.375 0 5.179688 4.191406 9.375 9.375 9.375h.125c5.183594 0 9.375-4.195312 9.375-9.375 0-5.175781-4.191406-9.375-9.375-9.375zm0 0" data-original="#000000" class="active-path" data-old_color="#000000" fill="#FDCB6E"/><path d="m132.050781 546.550781h-32.027343c-5.175782 0-9.375 4.199219-9.375 9.375 0 5.179688 4.199218 9.375 9.375 9.375h32.027343c5.179688 0 9.375-4.195312 9.375-9.375 0-5.175781-4.199219-9.375-9.375-9.375zm0 0" data-original="#000000" class="active-path" data-old_color="#000000" fill="#FDCB6E"/><path d="m417.039062 81.285156c13.632813 0 24.726563-11.09375 24.726563-24.730468 0-13.632813-11.09375-24.726563-24.726563-24.726563-13.632812 0-24.726562 11.09375-24.726562 24.726563 0 13.636718 11.09375 24.730468 24.726562 24.730468zm0-30.707031c3.296876 0 5.976563 2.679687 5.976563 5.976563 0 3.300781-2.679687 5.980468-5.976563 5.980468-3.292968 0-5.976562-2.679687-5.976562-5.980468 0-3.296876 2.683594-5.976563 5.976562-5.976563zm0 0" data-original="#000000" class="active-path" data-old_color="#000000" fill="#FDCB6E"/><path d="m370.71875 67.082031c5.179688 0 9.375-4.199219 9.375-9.375 0-5.179687-4.195312-9.375-9.375-9.375h-.117188c-5.175781 0-9.316406 4.195313-9.316406 9.375 0 5.175781 4.257813 9.375 9.433594 9.375zm0 0" data-original="#000000" class="active-path" data-old_color="#000000" fill="#FDCB6E"/><path d="m342.285156 67.082031c5.179688 0 9.375-4.199219 9.375-9.375 0-5.179687-4.195312-9.375-9.375-9.375h-.117187c-5.175781 0-9.316407 4.195313-9.316407 9.375 0 5.175781 4.257813 9.375 9.433594 9.375zm0 0" data-original="#000000" class="active-path" data-old_color="#000000" fill="#FDCB6E"/><path d="m313.859375 67.082031c5.171875 0 9.375-4.199219 9.375-9.375 0-5.179687-4.203125-9.375-9.375-9.375h-.125c-5.175781 0-9.316406 4.195313-9.316406 9.375 0 5.175781 4.257812 9.375 9.441406 9.375zm0 0" data-original="#000000" class="active-path" data-old_color="#000000" fill="#FDCB6E"/><path d="m417.039062 177.316406c13.632813 0 24.726563-11.09375 24.726563-24.730468 0-13.632813-11.09375-24.726563-24.726563-24.726563-13.632812 0-24.726562 11.09375-24.726562 24.726563 0 13.636718 11.09375 24.730468 24.726562 24.730468zm0-30.707031c3.296876 0 5.976563 2.679687 5.976563 5.976563 0 3.292968-2.679687 5.980468-5.976563 5.980468-3.292968 0-5.976562-2.6875-5.976562-5.980468 0-3.296876 2.683594-5.976563 5.976562-5.976563zm0 0" data-original="#000000" class="active-path" data-old_color="#000000" fill="#FDCB6E"/><path d="m370.765625 144.363281h-.117187c-.015626 0-.03125 0-.046876 0-5.15625 0-9.289062 4.164063-9.316406 9.324219-.027344 5.175781 4.207032 9.394531 9.382813 9.425781h.050781c5.15625 0 9.351562-4.167969 9.375-9.328125.027344-5.179687-4.148438-9.398437-9.328125-9.421875zm0 0" data-original="#000000" class="active-path" data-old_color="#000000" fill="#FDCB6E"/><path d="m342.335938 144.363281h-.117188c-.015625 0-.035156 0-.050781 0-5.15625 0-9.285157 4.164063-9.316407 9.324219-.023437 5.175781 4.210938 9.394531 9.382813 9.425781h.054687c5.152344 0 9.347657-4.171875 9.371094-9.328125.027344-5.179687-4.144531-9.398437-9.324218-9.421875zm0 0" data-original="#000000" class="active-path" data-old_color="#000000" fill="#FDCB6E"/><path d="m313.902344 144.363281h-.117188c-.015625 0-.03125 0-.050781 0-5.15625 0-9.285156 4.164063-9.316406 9.324219-.023438 5.175781 4.210937 9.394531 9.390625 9.425781h.050781c5.15625 0 9.34375-4.171875 9.375-9.328125.023437-5.179687-4.152344-9.398437-9.332031-9.421875zm0 0" data-original="#000000" class="active-path" data-old_color="#000000" fill="#FDCB6E"/><path d="m106.660156 248.613281c0 31.648438 25.746094 57.394531 57.386719 57.394531h108.042969c5.175781 0 9.375-4.199218 9.375-9.375 0-5.179687-4.199219-9.375-9.375-9.375h-22.164063v-77.28125h226.019531c21.304688 0 38.640626 17.335938 38.640626 38.636719 0 21.308594-17.335938 38.644531-38.640626 38.644531h-163.035156c-5.175781 0-9.375 4.195313-9.375 9.375 0 5.175782 4.199219 9.375 9.375 9.375h163.03125c31.644532 0 57.394532-25.746093 57.394532-57.394531 0-20.066406-10.363282-37.753906-26.011719-48.011719 15.648437-10.261718 26.011719-27.949218 26.011719-48.015624 0-20.070313-10.363282-37.753907-26.011719-48.015626 15.648437-10.261718 26.011719-27.941406 26.011719-48.015624 0-31.640626-25.75-57.386719-57.394532-57.386719h-311.894531c-31.640625 0-57.386719 25.746093-57.386719 57.386719 0 20.074218 10.363282 37.753906 26.011719 48.015624-15.648437 10.261719-26.011719 27.945313-26.011719 48.015626 0 20.066406 10.363282 37.753906 26.011719 48.015624-15.648437 10.257813-26.011719 27.945313-26.011719 48.011719zm124.511719-134.667969v77.28125h-42.660156v-77.28125zm0-18.75h-42.660156v-77.277343h42.660156zm-42.65625 192.0625v-77.28125h42.660156v77.28125zm326.070313-230.703124c0 21.308593-17.335938 38.640624-38.644532 38.640624h-71.78125c-5.175781 0-9.375 4.199219-9.375 9.375 0 5.175782 4.199219 9.375 9.375 9.375h71.78125c21.308594 0 38.644532 17.335938 38.644532 38.640626 0 21.308593-17.335938 38.640624-38.644532 38.640624h-226.019531v-77.28125h113.414063c5.179687 0 9.375-4.199218 9.375-9.375 0-5.175781-4.195313-9.375-9.375-9.375h-113.414063v-77.277343h226.019531c21.308594 0 38.644532 17.332031 38.644532 38.636719zm-389.175782 0c0-21.304688 17.332032-38.636719 38.636719-38.636719h5.714844v77.277343h-5.714844c-21.304687 0-38.636719-17.332031-38.636719-38.640624zm0 96.03125c0-21.304688 17.332032-38.640626 38.636719-38.640626h5.714844v77.28125h-5.714844c-21.304687 0-38.636719-17.332031-38.636719-38.640624zm38.636719 57.390624h5.714844v77.28125h-5.714844c-21.304687 0-38.636719-17.335937-38.636719-38.644531 0-21.300781 17.332032-38.636719 38.636719-38.636719zm0 0" data-original="#000000" class="active-path" data-old_color="#000000" fill="#FDCB6E"/><path d="m441.765625 248.613281c0-13.632812-11.09375-24.726562-24.726563-24.726562-13.632812 0-24.726562 11.09375-24.726562 24.726562 0 13.640625 11.09375 24.734375 24.726562 24.734375 13.632813 0 24.726563-11.09375 24.726563-24.734375zm-30.703125 0c0-3.292969 2.683594-5.976562 5.976562-5.976562 3.296876 0 5.976563 2.683593 5.976563 5.976562 0 3.296875-2.679687 5.984375-5.976563 5.984375-3.292968 0-5.976562-2.6875-5.976562-5.984375zm0 0" data-original="#000000" class="active-path" data-old_color="#000000" fill="#FDCB6E"/><path d="m380.09375 249.765625c0-5.179687-4.195312-9.375-9.375-9.375h-.117188c-5.175781 0-9.316406 4.195313-9.316406 9.375 0 5.175781 4.257813 9.375 9.433594 9.375 5.179688 0 9.375-4.199219 9.375-9.375zm0 0" data-original="#000000" class="active-path" data-old_color="#000000" fill="#FDCB6E"/><path d="m351.660156 249.765625c0-5.179687-4.195312-9.375-9.375-9.375h-.117187c-5.175781 0-9.316407 4.195313-9.316407 9.375 0 5.175781 4.257813 9.375 9.433594 9.375 5.179688 0 9.375-4.199219 9.375-9.375zm0 0" data-original="#000000" class="active-path" data-old_color="#000000" fill="#FDCB6E"/><path d="m313.859375 259.140625c5.171875 0 9.375-4.199219 9.375-9.375 0-5.179687-4.203125-9.375-9.375-9.375h-.125c-5.175781 0-9.316406 4.195313-9.316406 9.375 0 5.175781 4.257812 9.375 9.441406 9.375zm0 0" data-original="#000000" class="active-path" data-old_color="#000000" fill="#FDCB6E"/><path d="m93.921875 401.359375c5.179687 0 9.375-4.199219 9.375-9.375 0-8 6.507813-14.507813 14.507813-14.507813h178.3125c9.367187 0 17.832031-3.894531 23.882812-10.144531 6.050781 6.25 14.515625 10.144531 23.882812 10.144531h178.308594c8 0 14.507813 6.507813 14.507813 14.507813 0 5.175781 4.199219 9.375 9.375 9.375 5.179687 0 9.375-4.199219 9.375-9.375 0-18.339844-14.917969-33.257813-33.257813-33.257813h-178.308594c-8 0-14.507812-6.507812-14.507812-14.507812v-13.914062c0-5.179688-4.199219-9.375-9.375-9.375-5.179688 0-9.375 4.195312-9.375 9.375v13.914062c0 8-6.507812 14.507812-14.507812 14.507812h-178.3125c-18.34375 0-33.257813 14.921876-33.257813 33.257813 0 5.175781 4.195313 9.375 9.375 9.375zm0 0" data-original="#000000" class="active-path" data-old_color="#000000" fill="#FDCB6E"/><path d="m358.277344 516.757812-32.5-25.453124c-3.394532-2.660157-8.164063-2.660157-11.5625 0l-32.5 25.453124c-4.074219 3.195313-4.792969 9.089844-1.597656 13.164063 2.171874 2.769531 5.589843 3.980469 8.835937 3.476563v19.765624c0 5.183594 4.195313 9.375 9.375 9.375h43.335937c5.175782 0 9.375-4.191406 9.375-9.375v-19.765624c.484376.074218.96875.117187 1.453126.117187 2.78125 0 5.535156-1.234375 7.386718-3.59375 3.191406-4.074219 2.472656-9.96875-1.601562-13.164063zm-50.574219 27.03125v-23.566406l12.292969-9.628906 12.292968 9.628906v23.566406zm0 0" data-original="#000000" class="active-path" data-old_color="#000000" fill="#FDCB6E"/></g> </svg>
